<svg width="93" height="97" viewBox="0 0 93 97" fill="none" xmlns="http://www.w3.org/2000/svg">
<path d="M0.685617 36.3884L90.3608 35.7383L92.8586 96.7054L0.00128174 95.8462L0.685617 36.3884Z" fill="#407BFF"/>
<path d="M0.681824 36.3884L43.1261 2.04597C43.9982 1.3412 45.0866 0.958647 46.2078 0.962802C47.329 0.966957 48.4146 1.35757 49.2814 2.06878L90.3608 35.7383" fill="#407BFF"/>
<g opacity="0.3">
<path d="M0.681824 36.3884L43.1261 2.04597C43.9982 1.3412 45.0866 0.958647 46.2078 0.962802C47.329 0.966957 48.4146 1.35757 49.2814 2.06878L90.3608 35.7383" fill="black"/>
</g>
<path d="M0.00125332 95.8462C-0.109001 95.7397 7.06896 87.9002 16.0376 78.3385C25.0063 68.7767 32.3629 61.1083 32.477 61.211C32.591 61.3136 25.4093 69.1531 16.4406 78.7187C7.47196 88.2842 0.11531 95.9488 0.00125332 95.8462Z" fill="#263238"/>
<path d="M92.8586 96.7054C92.7446 96.8081 85.7529 89.1282 77.2443 79.5551C68.7356 69.9819 61.9302 62.1348 62.0367 62.0322C62.1431 61.9295 69.1424 69.6093 77.6511 79.1863C86.1597 88.7633 92.9803 96.6027 92.8586 96.7054Z" fill="#263238"/>
<g opacity="0.5">
<path d="M90.3608 35.7383L45.3274 71.7118L0.685608 36.3884" fill="black"/>
</g>
<path d="M5.19845 39.7189L5.06158 11.7142L83.582 10.7827L84.4678 40.2512L45.3236 71.2404L5.19845 39.7189Z" fill="#FAFAFA"/>
<path d="M5.19842 39.7189C5.19842 39.7189 5.45315 39.909 5.93599 40.2854L8.06505 41.943L16.1821 48.2807L45.3844 71.1757H45.2855L84.4184 40.1751L84.3804 40.255C84.2131 34.6358 84.0344 28.7352 83.8519 22.7359C83.7341 18.6944 83.6124 14.7025 83.4945 10.7865L83.5934 10.8816L5.07296 11.775L5.1338 11.7142C5.16421 20.5232 5.19083 27.5224 5.20603 32.3204C5.20603 34.7194 5.20603 36.5671 5.20603 37.818V39.2361C5.20603 39.5554 5.20603 39.7189 5.20603 39.7189C5.20603 39.7189 5.20603 39.5592 5.20603 39.2437C5.20603 38.9281 5.20603 38.4529 5.20603 37.8332C5.20603 36.5823 5.17942 34.7384 5.16041 32.3432C5.13 27.5376 5.08437 20.5346 5.02734 11.7142V11.6495H5.08818L83.6124 10.6877H83.7074V10.7865C83.8253 14.6987 83.9432 18.6906 84.0648 22.7321C84.2473 28.7352 84.4222 34.632 84.5933 40.255V40.3044L84.5553 40.3348L45.3958 71.3088L45.3464 71.3468L45.297 71.3088L16.1137 48.3378L8.04605 41.9696L5.91698 40.2968C5.43795 39.9166 5.19842 39.7189 5.19842 39.7189Z" fill="#263238"/>
<path d="M71.1726 24.8877C71.1726 24.9409 59.1624 25.0588 44.3541 25.1463C29.5457 25.2337 17.5317 25.2679 17.5317 25.2109C17.5317 25.1539 29.5381 25.0398 44.3541 24.9486C59.17 24.8573 71.1726 24.8307 71.1726 24.8877Z" fill="#263238"/>
<path d="M71.1726 32.7956C71.1726 32.8527 59.1624 32.9705 44.3541 33.058C29.5457 33.1454 17.5317 33.1758 17.5317 33.1226C17.5317 33.0694 29.5381 32.9515 44.3541 32.8603C59.17 32.769 71.1726 32.7424 71.1726 32.7956Z" fill="#263238"/>
<path d="M71.1726 41.9164C71.1726 41.9696 59.1624 42.0875 44.3541 42.1787C29.5457 42.27 17.5317 42.2966 17.5317 42.2395C17.5317 42.1825 29.5381 42.0685 44.3541 41.981C59.17 41.8936 71.1726 41.8594 71.1726 41.9164Z" fill="#263238"/>
<path d="M71.1726 51.0333C71.1726 51.0903 59.7175 51.2006 45.5859 51.288C31.4543 51.3755 19.9992 51.3983 19.9954 51.3451C19.9916 51.2918 31.4505 51.1778 45.5859 51.0903C59.7213 51.0029 71.1726 50.9801 71.1726 51.0333Z" fill="#263238"/>
<path d="M61.128 59.0363C61.0251 59.0537 60.9207 59.0614 60.8163 59.0591L59.9114 59.0857L56.5962 59.1389L45.6505 59.2948C41.3772 59.3671 37.5031 59.3899 34.7011 59.3937H31.3858H30.481C30.3767 59.3956 30.2725 59.3892 30.1693 59.3747C30.2722 59.3572 30.3766 59.3496 30.481 59.3518L31.3858 59.329L34.7011 59.272L45.6467 59.1161C49.9201 59.0439 53.7942 59.0211 56.5924 59.0173H59.9114H60.8163C60.9205 59.017 61.0246 59.0234 61.128 59.0363Z" fill="#263238"/>
<path d="M51.0188 66.7313C51.0188 66.7845 48.4602 66.8302 45.316 66.8302C42.1718 66.8302 39.6132 66.7845 39.6132 66.7313C39.6132 66.6781 42.1756 66.6325 45.316 66.6325C48.4564 66.6325 51.0188 66.6743 51.0188 66.7313Z" fill="#263238"/>
<path d="M77.4496 60.519C82.6884 60.519 86.9353 56.2721 86.9353 51.0333C86.9353 45.7945 82.6884 41.5476 77.4496 41.5476C72.2108 41.5476 67.9639 45.7945 67.9639 51.0333C67.9639 56.2721 72.2108 60.519 77.4496 60.519Z" fill="#263238"/>
<path d="M74.9821 60.519C80.2209 60.519 84.4678 56.2721 84.4678 51.0333C84.4678 45.7945 80.2209 41.5476 74.9821 41.5476C69.7433 41.5476 65.4964 45.7945 65.4964 51.0333C65.4964 56.2721 69.7433 60.519 74.9821 60.519Z" fill="#455A64"/>
<path d="M76.1873 46.6193V54.5044H74.7312V47.8321H73.0621V46.6041L76.1873 46.6193Z" fill="#EBEBEB"/>
</svg>
